<!-- icon666.com - MILLIONS OF FREE VECTOR ICONS --><svg version="1.1" id="Capa_1" xmlns="http://www.w3.org/2000/svg" xmlns:xlink="http://www.w3.org/1999/xlink" x="0px" y="0px" viewBox="0 0 19.675 19.675" style="enable-background:new 0 0 19.675 19.675;" xml:space="preserve"><g><path d="M19.675,19.467v-1.122H18.15v-1.787h0.366v-0.425H14.96c-0.092-0.116-0.203-0.217-0.233-0.305 c-0.034-0.104-0.034-0.183-0.112-0.32c-0.08-0.135-0.137-1.137,0-1.479c0.137-0.339,0.194-0.521,0.172-0.691 c-0.024-0.17,0.055-0.522,0.202-0.83c0.148-0.307,0.308-1.239,0.308-1.274c0-0.033,0.375-0.226,0.523-0.689 c0.148-0.471,0-0.33,0.148-0.471c0.134-0.123,0.223-0.328,0.207-0.434c0.18,0.029,0.535,0.072,0.939-0.02 c0.395-0.084,0.725-0.426,0.897-0.633C17.97,9.081,17.948,9.192,18.08,9.2c0.215,0.012,0.26,0.047,0.353-0.068 c0.089-0.111,0.17-0.191,0.249-0.203c0.08-0.014,0.205-0.035,0.229-0.24c0.022-0.205,0.092-1.389,0.148-1.592 c0.057-0.203,0.068-0.281,0.068-0.281h0.091c0,0,0.058-0.379-0.035-0.639C19.092,5.915,19.014,5.8,19.014,5.8 s0.204-0.088,0.283-0.281c0.08-0.193,0.035-0.307,0.035-0.307l-0.228,0.145L18.992,4.72c0,0-1.434-0.17-2.5,0.123 c-1.07,0.299-1.628,0.932-2.082,1.354c-0.455,0.422-0.672,0.492-0.875,0.545c-0.205,0.061-0.308,0.061-0.308,0.061 s0-0.016-0.003-0.047l1.217-2.809c0.075,0.012,0.15,0.012,0.15,0.012s-0.057,0.182,0.011,0.195 c0.067,0.008,0.353-0.285,0.375-0.414C15,3.619,14.863,3.455,14.863,3.369c0-0.092,0.014-0.334-0.045-0.375 c-0.057-0.047-0.58-0.217-0.795-0.32c-0.217-0.102-0.25-0.125-0.5-0.092c-0.25,0.035-0.934,0.127-1.205,0.16 c-0.274,0.035-0.388,0.024-0.388,0.024l-0.091-0.137c0,0,0.172-0.047,0.228-0.26c0.06-0.217-0.022-0.32-0.011-0.443 c0.011-0.127-0.023-0.275-0.023-0.275s0.114,0.023,0.148-0.033c0.033-0.057-0.159-0.445-0.159-0.445l0.056-0.137l-0.056-0.27 L12.1,0.74l0.092-0.467c0,0-0.17-0.146-0.442,0c0,0-0.5-0.156-0.965,0.012c-0.467,0.172-0.49,1.082-0.49,1.082 s-0.173,0.225-0.318,0.295C9.83,1.732,9.806,1.766,9.806,1.766l0.205,0.227c0,0-0.4,0.387-0.523,0.91 c-0.126,0.523-0.24,2.988-0.763,3.681S7.293,7.482,6.814,7.643C6.339,7.803,5.94,7.975,5.94,7.975l0.011,0.191 c0,0-0.647,0.396-0.795,0.59C5.008,8.947,4.859,9.084,4.859,9.084s-0.455,0.307-0.725,1.252c-0.275,0.943-0.127,2.58-0.08,3.193 c0.045,0.614,0.08,1.206,0.01,1.584c-0.055,0.297-0.166,0.817-0.211,1.02H1.235v0.425h0.362v1.787H0v0.639h0.021v0.483 C0.021,19.467,19.675,19.467,19.675,19.467z M15.285,17.877c0-0.444,0.358-0.808,0.805-0.808c0.443,0,0.804,0.361,0.804,0.808 v0.468h-1.608v-0.468H15.285z M16.682,8.393c0.207-0.365,0.284-0.582,0.388-0.832c0.102-0.248,0.206-0.27,0.206-0.27 s0.272,0.41,0.283,0.684c0.005,0.127-0.028,0.285-0.058,0.432c-0.209,0.137-0.459,0.27-0.715,0.328 c-0.173,0.039-0.307,0.059-0.414,0.064C16.464,8.699,16.571,8.592,16.682,8.393z M16.16,9.074c0.008-0.018,0.016-0.031,0.027-0.049 c0.208,0.012,0.547-0.006,0.906-0.154c0.13-0.053,0.25-0.119,0.354-0.188c-0.001,0.035,0,0.064,0.008,0.082 c0.041,0.105,0.153,0.217,0.244,0.254c-0.098,0.111-0.307,0.316-0.607,0.43c-0.391,0.146-0.896-0.018-0.985-0.051 C16.091,9.309,16.097,9.199,16.16,9.074z M10.751,18.345H9.146v-0.468c0-0.444,0.359-0.808,0.802-0.808 c0.442,0,0.801,0.361,0.801,0.808v0.468H10.751z M13.822,17.877v0.468h-1.607v-0.468c0-0.444,0.361-0.808,0.806-0.808 C13.462,17.069,13.822,17.433,13.822,17.877z M13.496,15.515l0.002,0.004l-0.021-0.004C13.478,15.515,13.492,15.515,13.496,15.515z M14.328,3.769C14.316,3.787,14.305,3.807,14.3,3.83l-1.096,2.539c-0.006-0.135-0.013-0.264-0.013-0.328 c0-0.172-0.112-0.344-0.123-0.385c-0.011-0.051-0.331-0.857-0.444-1.141c-0.113-0.285-0.342-0.58-0.342-0.58 s0.467-0.293,0.809-0.453c0.342-0.162,0.591-0.195,0.591-0.195s0.137,0.104,0.331,0.162c0.191,0.057,0.25,0.111,0.25,0.111 s0,0.148,0.056,0.16c0.021,0.002,0.022,0.014,0.017,0.027L14.328,3.769z M12.033,2.885c0,0,1.525-0.236,1.625-0.244 c0.098-0.01,0.256,0.053,0.317,0.092c0.06,0.039,0.787,0.324,0.787,0.324S14.718,3.08,14.669,3.08 c-0.043,0-0.142,0.066-0.142,0.066s-0.426-0.219-0.522-0.271c-0.097-0.052-0.336-0.068-0.336-0.068l-1.637,0.41 c-0.111,0.029-0.145-0.023-0.22-0.049c-0.074-0.022-0.232,0.139-0.232,0.139l-0.295-0.1c0,0-0.025-0.074-0.009-0.166 c0.017-0.09,0.144-0.354,0.144-0.354s0.061-0.016,0.146,0.012c0.081,0.033,0.233,0.135,0.233,0.135L12.033,2.885z M12.119,1.566 c0,0-0.184,0.031-0.195-0.018c0,0-0.031-0.068,0.008-0.07c0.039-0.006,0.072,0.014,0.072,0.014s-0.061-0.197-0.029-0.203 C12.001,1.279,12.119,1.566,12.119,1.566z M11.94,0.912c0.011,0.012,0.049,0.107,0.041,0.133c-0.007,0.025-0.28-0.01-0.28-0.01 C11.748,0.996,11.927,0.898,11.94,0.912z M11,1.338c0,0,0.117,0.289,0.188,0.354c0.071,0.068,0.156,0.035,0.192,0.068 c0.039,0.027,0.084-0.18,0.099-0.248c0.015-0.07-0.071-0.242-0.085-0.248c0,0,0.044-0.096,0.093-0.096 c0.05,0,0.234,0.174,0.229,0.227c-0.004,0.057-0.084,0.158-0.079,0.26c0.007,0.104-0.017,0.191,0.004,0.223 c0.019,0.035,0.026,0.111,0.026,0.111s0.092-0.102,0.127-0.143c0.035-0.043,0.127-0.16,0.154-0.133 c0.034,0.025,0.065,0.111,0.023,0.141c-0.04,0.033-0.115,0.09-0.165,0.139S11.709,2.13,11.709,2.13l-0.002,0.057 c0,0-0.102-0.139-0.188-0.195c-0.087-0.056-0.162-0.064-0.162-0.064l-0.03,0.203c0,0-0.186-0.227-0.234-0.352 s-0.15-0.412-0.15-0.412L11,1.338z M7.327,12.554c0,0,0.795-0.978,1.113-0.988c0.32-0.01,1.4,0.465,2.194,0.521 c0.794,0.058,2.511-0.11,2.511-0.11s0.149,0.953,0.093,1.227c-0.058,0.273-0.023,0.363-0.023,0.5c0,0.135,0.115,0.795,0.047,1.068 c-0.07,0.272-0.092,0.635,0,0.682c0.089,0.047,0.213,0.184,0.213,0.33c0,0.098-0.004,0.248-0.004,0.352H8.423 c-0.101-0.146-0.312-0.514-0.448-0.703c-0.172-0.238-0.533-0.637-0.533-0.637s-0.024-0.889-0.081-1.369 C7.305,12.949,7.327,12.554,7.327,12.554z M6.077,17.877c0-0.444,0.359-0.808,0.804-0.808c0.444,0,0.802,0.361,0.802,0.808v0.468 H6.077V17.877z M3.005,17.877c0-0.444,0.361-0.808,0.805-0.808c0.445,0,0.802,0.361,0.802,0.808v0.468H3.005V17.877z" fill="#000000" style="fill: rgb(0, 0, 0);"></path></g></svg>